<svg width="100" height="147" viewBox="0 0 100 147" fill="none" xmlns="http://www.w3.org/2000/svg">
<g opacity="0.62" filter="url(#filter0_f_229_28)">
<path d="M84.9999 135.435C84.9999 138.508 72.1366 141 50.1227 141C28.1088 141 13.9999 138.508 13.9999 135.435C13.9999 132.361 28.1088 125 50.1227 125C72.1366 125 84.9999 132.361 84.9999 135.435Z" fill="#BEBDBD"/>
</g>
<path d="M99.9999 50C99.9999 77.6142 49.9999 133.5 49.9999 133.5C49.9999 133.5 -0.00012207 77.6142 -0.00012207 50C-0.00012207 22.3858 22.3856 0 49.9999 0C77.6141 0 99.9999 22.3858 99.9999 50Z" fill="#E40000"/>
<ellipse cx="50" cy="49" rx="29" ry="28" fill="white"/>
<defs>
<filter id="filter0_f_229_28" x="7.99988" y="119" width="83" height="28" filterUnits="userSpaceOnUse" color-interpolation-filters="sRGB">
<feFlood flood-opacity="0" result="BackgroundImageFix"/>
<feBlend mode="normal" in="SourceGraphic" in2="BackgroundImageFix" result="shape"/>
<feGaussianBlur stdDeviation="3" result="effect1_foregroundBlur_229_28"/>
</filter>
</defs>
</svg>
